<?xml version="1.0" encoding="UTF-8" standalone="no"?>
<!DOCTYPE svg PUBLIC "-//W3C//DTD SVG 1.1//EN" "http://www.w3.org/Graphics/SVG/1.1/DTD/svg11.dtd">
<svg
   xmlns:svg="http://www.w3.org/2000/svg"
   xmlns="http://www.w3.org/2000/svg"
   version="1.1"
   width="742.28845"
   height="170.45657"
   id="svg4677">
  <defs
     id="defs4679" />
  <path
     d="m 688.61282,0.27696 53.67562,84.99088 -53.87323,85.18873 -54.38707,-84.83261 54.58467,-85.347"
     id="path12458"
     style="fill:#0c87d1;fill-opacity:1;fill-rule:nonzero;stroke:none" />
  <path
     d="m 533.71252,98.04813 c 3.55728,3.67977 7.98413,5.06464 13.47817,3.95675 4.22924,-0.87051 7.58889,3.36323 7.54934,6.52863 -0.0405,3.20497 -2.64822,7.12214 -8.02368,7.51782 -6.56115,0.51436 -10.158,1.74096 -12.13433,3.04669 -2.5691,1.62226 -6.67975,7.24084 -7.94456,10.99975 0,0.079 2.29245,0.27694 3.47824,0.51437 -0.94812,3.00712 -0.82972,7.67608 -0.47456,9.97099 1.18579,-1.14745 2.41104,-2.21577 3.79445,-3.12583 -0.71134,1.464 -1.22527,6.13296 -1.14623,8.42787 1.42297,-1.14746 3.00399,-2.09707 4.62447,-2.92799 -1.42287,2.73015 -2.01581,7.31998 -2.01581,7.39912 1.58102,-0.27694 3.16203,-0.39565 4.78262,-0.39565 -3.00389,1.10789 -4.30827,2.96756 -4.54545,4.90636 -2.05527,0.98923 -3.47824,3.12583 -3.47824,5.57901 0,2.88843 1.97625,5.30204 4.62447,5.97469 -0.39563,-1.18702 -0.19732,-3.32367 0.39562,-4.23372 0.43511,-0.51437 1.02765,-0.87051 1.69952,-0.94962 1.22535,0.39565 3.6364,0.23743 5.57318,-1.38485 3.59672,1.9388 6.00787,5.73727 6.00787,10.12926 0,0.15832 0,0.31654 0,0.47476 3.16204,-1.93881 5.3359,-5.38117 5.49396,-9.29835 4.54544,1.34529 5.25697,6.29122 3.83399,8.82354 2.76682,-1.66184 4.66405,-4.66896 4.66405,-8.1509 0,-1.74097 -0.47457,-3.36323 -1.30439,-4.78766 2.41104,1.06833 4.26881,3.24453 4.90121,5.85599 0.43509,-1.14746 0.71132,-2.37405 0.71132,-3.71935 0,-5.14376 -3.87347,-9.37748 -8.89327,-9.971 -1.30427,-0.8309 -2.8853,-1.34529 -4.58491,-1.34529 -1.62058,0 -3.12257,0.43526 -4.38739,1.18702 l -4.34771,-14.71909 c 1.38339,0.98923 4.62446,2.57189 4.70348,2.61146 0.27625,-2.41361 0.90864,-4.82724 1.89722,-7.20128 4.74306,3.4028 10.67191,4.15459 10.71137,4.15459 -0.19731,-1.46401 -0.3157,-2.96756 -0.23677,-4.47113 4.98013,3.08626 11.34377,3.20497 11.42279,3.20497 -1.30427,-4.66896 -0.75079,-8.90268 -0.11838,-12.50331 0.6324,-3.64021 1.0672,-5.85599 1.14632,-6.13296 0.3157,-0.0395 2.49007,-0.27694 3.99206,1.06832 1.54146,1.30573 1.38341,4.82723 1.18569,6.44949 -0.9481,6.76603 0.35617,21.36642 0.35617,21.44556 1.77864,-0.87051 3.67586,-1.50357 5.65211,-1.97838 -0.15785,2.33449 0.47456,6.3308 0.51402,6.40994 1.22525,-0.67269 2.52963,-1.2266 3.87347,-1.70141 0.0809,1.14746 0.23677,2.29492 0.4351,3.40281 0,0.0395 0,0.0395 0.0405,0.079 -0.90864,0.8309 -1.54145,1.97837 -1.69961,3.2841 -2.05527,0.98922 -3.47824,3.12583 -3.47824,5.57901 0,2.84885 1.97635,5.30204 4.62457,5.97468 -0.35617,-0.87051 -0.23677,-3.24453 0.4351,-4.27328 0.39563,-0.51437 0.98858,-0.83091 1.66014,-0.94962 1.0672,0.47476 4.07109,0.19782 5.57308,-1.3453 3.59683,1.93881 6.04734,5.73729 6.04734,10.0897 0,0.15832 -0.0405,0.35615 -0.0405,0.51437 3.16204,-1.93881 5.3359,-5.38118 5.49406,-9.33792 2.60865,0.75179 4.50587,3.1654 4.50587,6.01425 0,1.02876 -0.23677,1.97838 -0.67187,2.80929 2.80638,-1.62226 4.66404,-4.66895 4.66404,-8.11132 0,-1.78053 -0.47456,-3.40281 -1.30438,-4.78766 2.4506,1.06831 4.2688,3.20496 4.90121,5.85598 0.43509,-1.14746 0.71133,-2.41362 0.71133,-3.71934 0,-5.14377 -3.87347,-9.37749 -8.85371,-9.971 -1.34384,-0.87051 -2.92486,-1.34529 -4.62447,-1.34529 -1.30437,0 -2.56919,0.27694 -3.67585,0.7914 0,0 -5.29644,-5.57902 -8.5375,-12.0285 1.73907,-0.83091 5.09882,-3.20497 5.17785,-3.24454 -1.62059,-1.10789 -3.08302,-2.37405 -4.46642,-3.8776 3.00399,0 8.26086,-2.01795 8.33989,-2.05751 -1.58102,-1.89924 -3.51781,-4.94594 -4.18968,-6.92431 1.93669,-0.55397 3.91304,-0.8309 5.84972,-0.91001 0,-1.66183 -6.36354,-11.63283 -12.41097,-16.30179 -8.73512,-6.76604 -16.56119,-10.99975 -16.56119,-10.99975 l 0.98858,-5.97469 c 1.8182,1.30573 3.83391,2.41362 6.04734,3.24453 0.0809,0.0395 0.15785,0.0395 0.23677,0.079 0.081,-1.78053 0.39563,-3.60064 0.86918,-5.34161 l 3.75488,2.45319 c -0.0405,0.75179 0.081,1.5827 0.4351,2.29491 0.3157,0.75179 0.79026,1.34529 1.3834,1.85967 -0.0405,0.23743 -0.0809,0.47476 -0.0809,0.75179 -0.11838,2.84886 2.09484,5.26247 4.94068,5.38118 0.90864,0.0395 1.73907,-0.15832 2.49006,-0.51437 -1.93668,-0.59347 -3.32009,-2.37405 -3.35965,-4.47112 0.47456,-0.079 0.94811,-0.19782 1.42297,-0.39565 0.23677,-0.11871 0.47456,-0.23743 0.71133,-0.39565 0.82972,1.26616 2.21343,2.01795 3.67586,2.09708 0.0809,0 0.19731,0 0.31569,0.0395 1.30438,0.079 2.5692,0.87051 3.16204,2.1762 0.59295,1.3453 0.3157,2.80929 -0.55348,3.87761 0.27725,-0.079 0.51402,-0.15832 0.75079,-0.27693 3.00399,-1.34529 4.34783,-4.8668 3.00399,-7.87393 -0.4351,-0.91001 -1.02774,-1.66182 -1.73917,-2.25534 0.0405,-0.51436 0,-0.98922 -0.11839,-1.50356 0.23678,-0.15832 0.47456,-0.31654 0.7508,-0.43525 2.37158,-1.06832 5.17786,0 6.24505,2.37405 0.23677,0.55397 0.35618,1.10789 0.39563,1.66182 1.42297,-1.74096 1.85776,-4.23371 0.82972,-6.44948 -1.02764,-2.33448 -3.32009,-3.67978 -5.69167,-3.67978 0.081,-0.35615 0.081,-0.7518 0.081,-1.10789 0.19731,-0.11872 0.39563,-0.23743 0.59294,-0.31654 2.09484,-0.94962 4.54545,-0.23743 5.81026,1.62227 -0.11839,-0.71219 -0.3157,-1.42443 -0.59294,-2.09708 -1.58102,-3.44236 -5.3359,-5.2229 -8.89317,-4.35241 -1.58102,-0.87051 -3.51781,-0.98923 -5.29644,-0.19783 -1.18579,0.55397 -2.1344,1.46399 -2.72725,2.53232 l -3.67585,-2.41362 c 1.50199,-0.67269 4.50588,-2.65102 4.5849,-2.69059 -0.86918,-0.63308 -1.69961,-1.34529 -2.49006,-2.13664 2.37147,-0.8309 5.77069,-3.16539 5.81025,-3.20496 -1.02763,-0.7914 -2.01581,-1.7014 -2.92486,-2.65102 2.52963,-1.30572 5.96831,-5.57901 6.00787,-5.61858 -1.97634,-0.7518 -3.834,-1.78054 -5.61264,-3.04669 l 2.92486,-2.61145 c 0.67187,0.23743 1.42297,0.39565 2.17387,0.31654 0.79025,-0.0395 1.54155,-0.27694 2.17396,-0.63308 0.23677,0.15832 0.4351,0.23743 0.67187,0.35614 2.64822,1.10789 5.69167,-0.11871 6.79843,-2.73015 0.35617,-0.8309 0.47456,-1.66183 0.39564,-2.49275 -1.22526,1.5827 -3.39922,2.25534 -5.33591,1.54313 0.11839,-0.47475 0.15785,-0.94961 0.11839,-1.464 0,-0.27693 -0.0405,-0.55397 -0.11839,-0.7914 1.502,-0.35614 2.68769,-1.34529 3.28063,-2.69059 0.0405,-0.11871 0.0809,-0.19782 0.11839,-0.31653 0.55348,-1.18702 1.73907,-2.09708 3.16204,-2.17621 1.46243,-0.079 2.7667,0.71219 3.47824,1.89924 0,-0.23743 0,-0.51436 0,-0.7914 -0.19731,-3.2841 -3.04355,-5.81642 -6.32408,-5.61858 -0.98858,0.0395 -1.93678,0.35614 -2.72734,0.8309 -0.4351,-0.19782 -0.90865,-0.35614 -1.42287,-0.43525 -0.0809,-0.27694 -0.11839,-0.55397 -0.15785,-0.87051 -0.11839,-2.61145 1.85776,-4.82723 4.42685,-4.9855 0.63241,-0.0395 1.18579,0.0395 1.73917,0.23743 -1.14622,-1.97836 -3.32019,-3.24452 -5.73123,-3.08625 -2.52963,0.15832 -4.62446,1.78053 -5.45449,4.03587 -0.31569,-0.19782 -0.67187,-0.35614 -1.02763,-0.51436 -0.0405,-0.19783 -0.081,-0.43526 -0.081,-0.63308 -0.15785,-2.33448 1.3833,-4.31285 3.55727,-4.8668 -0.67187,-0.15832 -1.42297,-0.23743 -2.17397,-0.15832 -3.75488,0.19783 -6.75877,3.12583 -7.19356,6.72647 -1.34394,1.18702 -2.17396,2.92799 -2.09484,4.86679 0.081,1.3453 0.59295,2.53232 1.38331,3.48194 0,0 -5.7707,5.1042 -5.81016,5.1042 0.55348,-1.66183 1.0671,-5.38117 1.0671,-5.46031 -9.68373,1.5827 -17.8259,-2.41361 -17.8259,-2.41361 1.18569,-0.0395 7.19356,-2.76973 7.58889,-2.96756 0.15785,-0.7518 0.3157,-1.50356 0.39564,-2.25534 2.52963,-1.26616 5.21731,0.35614 8.57696,-1.14746 3.32019,-1.50356 5.41503,-5.26248 4.2688,-9.97099 -0.75079,-2.96757 -3.67586,-5.06464 -6.0869,-5.18334 -2.4506,-0.079 -3.87357,0.59347 -4.22923,0.7914 2.29245,0.43525 4.22923,2.33448 4.22923,5.69771 0,3.08626 -3.71542,4.74809 -5.01979,4.74809 0.39563,-1.22659 0.39563,-5.53944 -0.081,-6.96387 -3.12248,-0.7914 -7.07508,-3.87761 -9.13035,-6.01425 -1.26481,-7.043 -6.87746,-12.5033 -7.62845,-13.17595 -0.1184,1.34529 -0.79026,4.23371 -0.82972,4.39198 -3.71542,-3.6402 -11.34378,-4.23371 -13.63633,-4.19414 1.66014,2.17621 2.96443,4.58982 3.87357,7.16171 C 549.91612,4.58959 542.64343,6.01402 540.43,6.68667 c 2.33201,1.78053 4.34782,3.95675 5.92885,6.40992 -6.83789,0.35615 -12.72729,4.7481 -14.46636,6.29123 3.04346,0.63308 5.96831,1.82011 8.57707,3.5215 -4.94076,2.80929 -8.53749,9.89187 -8.57707,9.971 2.41104,0.39565 6.8379,1.85967 8.77468,3.16539 -2.56919,0.31654 -5.13837,0.23743 -7.66801,-0.19782 1.02774,2.09707 5.61265,8.90267 10.39527,10.84148 -2.60867,0.11872 -5.21742,-0.15832 -7.74705,-0.8309 0.86918,2.17621 4.03163,8.58615 9.99993,12.02851 -1.81809,0.27693 -3.67586,0.31654 -5.53351,0.11871 1.22524,1.97838 6.04744,8.11133 11.69954,10.24797 -1.89722,0.67269 -3.79445,1.14746 -5.77069,1.38487 1.58102,1.70139 6.60071,5.85598 10.6718,6.76602 -1.58102,1.3453 -3.28053,2.53232 -5.13829,3.48194 2.05538,1.02876 7.03551,2.25535 7.19366,2.29491 l -0.47253,2.8886 c -2.8853,1.42443 -4.94067,3.24453 -7.03551,6.40993 -1.62049,2.37405 -5.92886,3.56107 -8.57696,2.88842 -3.004,-0.75179 -3.28063,-3.20496 -2.64822,-5.42074 0.47454,-2.21577 1.93668,-6.29122 3.47824,-9.49618 2.25288,-4.7481 1.18569,-9.89187 -0.90967,-12.74073 -3.32008,-4.51068 -5.69166,-4.74809 -9.99992,-4.82722 -5.21731,-0.11872 -8.93273,-4.90637 -7.11453,-9.971 0.9481,-2.69059 1.14622,-6.05383 -0.51402,-9.65446 -0.94811,-2.09708 -3.16204,-5.61858 -7.62846,-5.53944 -4.46642,0.11872 -7.90509,3.79848 -7.90509,7.39911 0,3.44237 2.60865,6.29122 5.92884,6.6869 -0.6324,-0.8309 -0.98858,-1.85967 -0.98858,-3.00712 -0.0405,-0.83091 0.27624,-3.67978 2.5692,-3.56108 2.29245,0.11872 3.35965,2.88842 1.54145,6.92431 -1.97625,4.98549 0,8.78397 1.38341,10.64364 0,0 1.18579,1.7014 4.07108,4.03588 -1.46243,1.42443 -3.35965,4.11502 -1.46243,8.23003 2.01581,4.31285 0.19731,6.72646 -1.58102,6.72646 -1.73907,0 -2.49006,-1.62226 -2.56909,-3.56106 -0.0405,-1.10789 0.39564,-2.17621 1.02764,-2.96756 -3.35965,0.35614 -5.92885,3.20496 -5.92885,6.64733 0,3.95674 3.87347,7.39911 7.86553,7.39911 3.59683,0 6.20559,-2.29491 7.66802,-5.53944 1.89722,-4.27328 0.82972,-7.04301 0,-10.12927 -0.82972,-3.0467 1.50189,-4.35242 4.34773,-3.79847 2.68778,0.51436 4.50598,4.07544 3.12257,7.20127 -0.75079,1.74097 -2.84583,6.13296 -3.35965,7.75522 -1.8182,5.46031 -2.17396,11.35586 0.63241,14.24428"
     id="path12462"
     style="fill:#7fb8e6;fill-opacity:1;fill-rule:nonzero;stroke:none" />
  <path
     d="m 139.60403,141.53276 c -1.66005,6.13296 -5.73124,20.33767 -5.73124,20.33767 -10.27656,4.07545 -25.21727,7.31998 -46.877187,7.31998 C 27.470267,169.19041 0,135.24154 0,94.5662 0,48.23271 33.438575,0 108.37887,0 c 10.27667,0 21.54142,1.18702 31.54136,3.36323 8.4189,1.8201 17.66784,5.38117 25.53348,9.65446 l -9.80232,37.82648 c -4.90121,-3.83804 -17.90513,-13.21554 -39.80222,-13.21554 -40.86931,0 -56.126118,35.37331 -56.126118,55.35487 0,24.05701 16.561186,39.25091 42.252718,39.25091 19.76269,0 34.11044,-7.35954 42.76653,-12.10763 0,0 -3.28063,15.27303 -5.13829,21.40598 m 19.60463,-20.1794 c 3.91304,2.69059 6.00788,3.99632 11.77857,6.96387 12.68772,6.13296 32.21322,7.12214 40.27648,7.12214 23.35952,0 28.53737,-10.12927 28.53737,-16.06438 0,-8.3883 -11.69954,-13.13639 -25.25674,-19.26935 l -9.52568,-4.31285 c -14.98017,-6.8056 -35.88908,-18.67584 -35.88908,-40.55663 0,-18.63627 11.38334,-30.74392 16.28444,-34.85893 17.58883,-15.4313 42.68752,-18.7154 63.71512,-18.7154 24.5453,0 52.21308,10.12926 62.88499,14.20471 l -9.80232,35.88768 c -3.47825,-2.73016 -6.95648,-4.94594 -10.6719,-6.96387 -10.67181,-5.93512 -28.26073,-10.56451 -35.77049,-10.56451 -14.11058,0 -23.4782,6.17252 -23.4782,13.88818 0,6.8056 6.48222,12.0285 24.94063,19.74415 l 5.77069,2.49275 c 13.51774,5.89554 40.6717,18.43843 40.6717,42.97025 0,32.48488 -33.35945,56.93756 -89.28806,56.93756 -22.92473,0 -59.80198,-5.02506 -66.60041,-8.23003 l 11.4229,-40.67534 M 500.7482,6.17252 l -6.04733,28.88423 -9.56514,42.61414 c -10.47428,46.96657 -17.07501,65.84024 -35.77059,78.69967 -16.36357,11.43499 -38.53731,13.88817 -57.78627,13.88817 -21.46229,0 -38.8535,-3.04669 -49.9602,-9.02138 -24.42671,-12.62201 -26.4821,-33.39493 -26.75873,-39.56745 -0.59294,-13.53206 2.56918,-28.88424 5.49405,-42.1789 l 10.3557,-44.67165 6.91693,-28.64683 54.26846,0 -8.45847,38.26172 -8.2213,36.20421 c -4.54534,21.08945 -5.88928,30.0317 -5.53352,37.82649 0.55349,13.53207 12.56913,16.02481 22.05524,16.73703 9.2885,0.7518 23.39908,-0.47476 28.22116,-12.62202 2.01582,-5.14376 3.47825,-10.72278 7.07508,-23.78003 7.11453,-26.15409 15.05919,-61.68566 15.05919,-61.68566 l 7.27269,-30.94174 51.38306,0"
     id="path12466"
     style="fill:#0c87d1;fill-opacity:1;fill-rule:nonzero;stroke:none" />
</svg>
